PathFileType	4	(X/Y/Z)	pose_F01_0-96.trc
DataRate	CameraRate	NumFrames	NumMarkers	Units	OrigDataRate	OrigDataStartFrame	OrigNumFrames
30	30	6	21	m	30	72	96
Frame#	Time	CHip			RHip			RKnee			RAnkle			RBigToe			RSmallToe			RHeel			LHip			LKnee			LAnkle			LBigToe			LSmallToe			LHeel			Neck			Nose			RShoulder			RElbow			RWrist			LShoulder			LElbow			LWrist			
		X1	Y1	Z1	X2	Y2	Z2	X3	Y3	Z3	X4	Y4	Z4	X5	Y5	Z5	X6	Y6	Z6	X7	Y7	Z7	X8	Y8	Z8	X9	Y9	Z9	X10	Y10	Z10	X11	Y11	Z11	X12	Y12	Z12	X13	Y13	Z13	X14	Y14	Z14	X15	Y15	Z15	X16	Y16	Z16	X17	Y17	Z17	X18	Y18	Z18	X19	Y19	Z19	X20	Y20	Z20	X21	Y21	Z21	
72	2.4	-0.16459852576223363	1.864831547466199	-0.5021156266409929	-0.16639692170656908	1.8625467938935953	-0.4422037884690745	-0.1449716755705787	1.6919996380074611	-0.42006687992749175	-0.18904370075127586	1.5242668177857037	-0.38555260494016047	-0.13266411906060235	1.4847317222791516	-0.3688651330700094	-0.14991527316407605	1.4890997313556478	-0.3403513476981823	-0.20172323068589926	1.50700719395961	-0.39262468045671806	-0.15979488139234438	1.8695436083985886	-0.5643758033733401	-0.185849087411823	1.6993696895079722	-0.5719821813702578													-0.17352708647010232	2.0568537650063012	-0.5111233239476749	-0.1280058285795881	2.1360332046882213	-0.5119550787792996	-0.1768581032526786	2.0524532241063893	-0.43273478133868415	-0.08101271051093505	2.0509762124762703	-0.41468546060514416	-0.018071834518518074	2.129373663561373	-0.41808157489811193	-0.17330745141379203	2.060759579190993	-0.5958449885809683	-1.6602864866039786	1.883159028036839	1.0297423753223784	-0.07539869176013392	1.9522398337053921	-0.5483378421558999
73	2.433333333333333	-0.16355446910698343	1.8704202039316355	-0.5083835938955703	-0.1673010987746311	1.8655542261095082	-0.4459120985029994	-0.14799300211243296	1.6953889795279409	-0.4216608469717955	-0.1888977172118935	1.5259100290282568	-0.3861796338808846	-0.13266411906060235	1.4847317222791516	-0.3688651330700094	-0.14993817138543314	1.4891671935348059	-0.34032257034902097	-0.20352914505597675	1.508894316951411	-0.39071897675898165	-0.15877384821276186	1.874436349535254	-0.5703613142940848	-0.18603981586598772	1.7005657592111116	-0.5720117313740121													-0.17635751075444642	2.0558573496066535	-0.5123092345872248	-0.13164638541640614	2.137549724180969	-0.5166805890919602	-0.17685009851755473	2.053856407142867	-0.43345219889007097	-0.0809321633584803	2.0509501823223517	-0.41473043585473873	-0.023430328211635328	2.132086187050836	-0.4268815864556267	-0.17639441435484765	2.0589039345184506	-0.5968273097461341	-1.662600176969869	1.8849985754155634	1.032809181735679	-0.0719308563700684	1.956284064007555	-0.5570310025268504
74	2.466666666666667	-0.16636510176611902	1.8727487807675884	-0.5098270770472499	-0.16742171941815281	1.869369967439916	-0.446659500975799	-0.14911106258555598	1.6956477024656957	-0.42518543271275877	-0.1886904534857411	1.5223979114973107	-0.38586080896354386	-0.13266411906060235	1.4847317222791516	-0.3688651330700094	-0.15059087908545254	1.4879638958885868	-0.3432786160912256	-0.20335845779225567	1.505765895427964	-0.39044290657659975	-0.16166298527703046	1.877029465000237	-0.5716632773749795	-0.18818610943287298	1.7039326738557552	-0.5701325381928689													-0.17533716688118017	2.057175643984131	-0.5174493446631149	-0.13253955245044322	2.1377185530639466	-0.5196862624620574	-0.17674677823172996	2.054927398760343	-0.43341188889210835	-0.08006952932183362	2.0508371312540175	-0.41145807009987334	-0.03188462288197193	2.135092534180854	-0.42242425664119804	-0.17628982865968199	2.0608237348811818	-0.5968454222685358	-1.6512715161157185	1.8852740210195602	1.0136796180335153	-0.07015254897914375	1.9642702869953987	-0.5728755629944899
75	2.5	-0.16481544578790128	1.8683160946997464	-0.5114156240465662	-0.16765676236177685	1.863633861785722	-0.44573577419678473	-0.1521214303429213	1.6962150648913423	-0.426237259141995	-0.18880004611788975	1.5254873268077025	-0.38629715079241694	-0.13266411906060235	1.4847317222791516	-0.3688651330700094	-0.1504929209301593	1.4872775186730667	-0.3436992223273203	-0.2035455897793962	1.5057799165085732	-0.39099576710392936	-0.16300808230753064	1.871315124454033	-0.5742289104489751	-0.1891955445646159	1.70160558897232	-0.5730087641469698													-0.17631051722283916	2.056214976740348	-0.5206035907990239	-0.13256873754117757	2.138845723343493	-0.519552984235292	-0.17593488128063042	2.0540803517026287	-0.4387131030570625	-0.07906070469740907	2.051037399245959	-0.4169805645677691	-0.039413812465250386	2.1314187789201124	-0.4237931817503598	-0.17729290527213337	2.0589996707720073	-0.6000502078540725	-1.6510584856098343	1.8850130629393607	1.0133912750842733	-0.0730217563868576	1.9681724379018715	-0.5748799054622087
76	2.533333333333333	-0.16754458873157438	1.870687665586756	-0.5128027059185994	-0.1685629283702907	1.8662164638161458	-0.44937562763872385	-0.152310660284123	1.6974330457681244	-0.42627262528564386	-0.18864072415912958	1.5249018030849388	-0.38622141255570897	-0.13266411906060235	1.4847317222791516	-0.3688651330700094	-0.1487729933937329	1.488460827293234	-0.3453508289430994	-0.20373272176653676	1.5057939375891827	-0.39154862763125897	-0.1626987259178736	1.8737811575282757	-0.5744927118365989	-0.18666747019496044	1.7048394375191396	-0.5759599463613753													-0.17634965299907984	2.055156445091943	-0.5207624691553387	-0.13256900129121468	2.140143911492471	-0.5202376539515863	-0.1759012848449482	2.054100440269677	-0.43877416931814034	-0.07626544287990629	2.048605761100895	-0.41557898387655895	-0.041228999618045464	2.132276281051912	-0.4204312106148561	-0.17532740540805747	2.0581515216036634	-0.6023678149754262	-0.14722812502814955	1.9712546288555848	-0.62896742159295	-0.07254820461922536	1.9708408783123177	-0.5839891587278551
77	2.566666666666667	-0.16780090771458026	1.869377888625622	-0.5125820179583954	-0.17061826750897846	1.8648934368526695	-0.44708966976655096	-0.15361019329561407	1.7000058392790396	-0.42958383972677455	-0.1885843525528417	1.5241539245996274	-0.3866543102222865	-0.13266411906060235	1.4847317222791516	-0.3688651330700094	-0.15053067816013255	1.4872779749363605	-0.34364111450200774	-0.20391985375367733	1.505807958669792	-0.3921014881585886	-0.1629780164848058	1.8723580860533753	-0.5742130922214087	-0.18916895705153985	1.7044016697344058	-0.5732952417757314													-0.17540759869664962	2.056101018481487	-0.5175668361145221	-0.133405057540594	2.1403196816050176	-0.5232437635772418	-0.17485724462549718	2.055020849864411	-0.43566034460805875	-0.07531543932297509	2.043887062145886	-0.4201651311133476	-0.04499784544735597	2.1266194290208515	-0.4212393276729353	-0.17645984517099203	2.0589119079044003	-0.5970030239262217	-1.6408775490924163	1.8826475360642845	0.9958050843977693	-0.07173523080279734	1.9708041985917832	-0.5808481727685417
